<mxfile host="app.diagrams.net" modified="2023-12-12T12:27:10.957Z" agent="Mozilla/5.0 (Windows NT 10.0; Win64; x64) AppleWebKit/537.36 (KHTML, like Gecko) Chrome/120.0.0.0 Safari/537.36" version="22.1.7" etag="V_KYwG2lVWJyFnxYpHUD" type="github">
  <diagram name="Page-1" id="4-GN6MLW4k9FYFXU9xv3">
    <mxGraphModel>
      <root>
        <mxCell id="0" />
        <mxCell id="1" parent="0" />
      </root>
    </mxGraphModel>
  </diagram>
</mxfile>
